<mxfile host="app.diagrams.net" modified="2024-01-07T10:50:42.188Z" agent="Mozilla/5.0 (Windows NT 10.0; Win64; x64) AppleWebKit/537.36 (KHTML, like Gecko) Chrome/120.0.0.0 Safari/537.36" etag="4PDyb4wwzjkLdBmfqxjS" version="22.1.17" type="github">
  <diagram name="Page-1" id="tCrtu_0lJ62xnmOG1jA6">
    <mxGraphModel dx="434" dy="521" grid="1" gridSize="10" guides="1" tooltips="1" connect="1" arrows="1" fold="1" page="1" pageScale="1" pageWidth="850" pageHeight="1100" math="0" shadow="0">
      <root>
        <mxCell id="0" />
        <mxCell id="1" parent="0" />
        <mxCell id="mec8if7hcqF6b17vrVBb-2" value="" style="shape=image;verticalLabelPosition=bottom;labelBackgroundColor=default;verticalAlign=top;aspect=fixed;imageAspect=0;image=data:image/png,iVBORw0KGgoAAAANSUhEUgAAACoAAAA8CAYAAAAQTCjdAAAAAXNSR0IArs4c6QAAAARnQU1BAACxjwv8YQUAAAAJcEhZcwAAEnQAABJ0Ad5mH3gAAAifSURBVGhD7VlZbFTXGf5mxp7Nuw0Yi8WoQBxTSBCU0kB5amMoBYQUDC2CUIlFWZ7zUonnBEFF+5LyxAPQh6RIpSDVQISEUllACCiEBGRjEzBmsSFm9rl3ttv/O3PvxBDPHXs8No3EJx/dZc495zv/+ddjhyHATwBO8/p/j5dES42XREuNl0RLjZ8M0ZI4/OFD8N7hcJhPWfCZ79nNMDLq2ekc3ufZ/iOhJETT6bS6ZjIZdHV14dq1a3jw4AFCoRA8Hg+qqqqwYMECLFr0Gmpra+ByuVBW5lLfCHUhbt3nx7iJ8vNkMon79+/j8OHD6O/vV6SmT58On8+HVCqFcDiMnp5eDA19j7Vr16pGspRsVrqFNbAkEr1x4wb279+PxYsXY+PGjaiurobX60V5eXluIZTu9evXcejQISxf/iu89977ItUyaeXSCm89BxozZKsN2WYjHo8bIkljz549hkjTiMViZo8fQyRr6LpmPHr0yFi6dJmx76O/GMFA1IhFE0YikVTj2aFoq6c+Uv+OHz8ueleLLVu2qO3MBxoPW319HU6f7sD585+js/MSopEEEolETs/zoSiiskDVBgcH0dHRAZGo2ubnrf158GeHw4namjps27YVHf85LXobgK7rSj24+HwoiqhF6MSJE2LJizBnzhzTksvU+xGhvnFIPyeEK5b98hdIpHR099xCJJaEposupzIQBcj2Fwy3nqKJ0lLPnDmDdevWKZJ8tpOo2Lf0K1N8naIhdQ21mNLYgDv9fUI0BT2BLNFMdreeR9E6ysF6enrQ0tJivhkbKvwV4h1qEAwEoWma2n66Mm6/RXP4uosmSukNDAygoaHBfDM2lHvKxRjdiETCEG8hRDWlp+lMuvQSJcmhoSHzzdiQ1JNi7UkxQreSYjKZlSbFOZIKFUWUJDkYjej27dvm27FBEwlGo1H4/D5F0GojSZMo2pg4YFtbm/jE0+bbseF7Caf37vUPU52RCVooeuuJDRs24OLFizLhPeWw7Zw2F5ZOp6RlpAFff3UDWjyFqVOaIIEULklM2Jz0XSNIdVxEZ8+ejVWrVuHo0aPKcpWO5YUhVi1bm3EgGAzjH8f+KbnBMvi8VYpgmbg4l42LK5qopUubN29Gd3c3Tp48qdxLPtA/ikEjEAhjx9u7MXVqI1peaVW+1e2WJpHNJakfEymL63DBjoso26xZs7B7924cO3YMR44cycVtayG8UtLc8q6ubgmdf5J4PwXr121QYdcr+YLH65bmkmcSzaZ+/NwcQmHUaR67DZ/cuqcU6aKuXLmCffv2Kce9fv16LFmyRKQ2FZJhQTImfPbZOdHnK3hj+Qr8tm01/P4qVEsyU1Vdi4ZaLyorfdK8Il2SZXIjYuUUpnRHTZRSsvSH90xIent7cffuXTx+/Fg9M+fkM7Mqt9udC6vUX0rU4/ZLtl8Df4Vf3FIl6humoFWS7NcXvipSrpbvylR4dTkZaiVvKIao5eeYrZ89exY3b95UBJgkNzc3Y+bMmZg2bRpqampUZl9RUaGSFA5PqcZjcYTCETwdeoqHA49w585d3H/4EFGJSnVVFVi9ug1Llr4uRuWUBZarpjiOhuhwB0zJMGQePHhQEVixYgVaW1sVSSsPzepWVi0s6VvvLPDW+j0UDqkS5fLlC/ji0mXJ/N/A5vY/iNQrVBZFnRXlygpWPipIlFv9UFa/a9culS21t7fLVtUrYyDsEubRIBJ9ijvf3cPf/voxXhFPsH37NlGLWplXR+/tbpz4178LE+XKqYM7d+7Epk2bsHXrVqV7Fvj7aIozO6SEUCZtoK/vAT76cD/WrFkj/vnX8l4TA/1QqREllheSzRiih8aBAweMvXv35p55FSmrqyzG7F08NC2uxorF4sb58/812tv/aHz7TZfxeHDIiESiRjQat6+ZZAzlzG/duiXbsV3pJrebV0qRV0sXxwOPx6vG8vm8ovvLMW/ez/DJJ59KCijpn5ZCKmnYO3xu/dWrV5XR0KpJvBTE8sMQfXdgx463cfLUKQwOPEEsqisbsSVKV0S/SKL0jROGnJVkbaK5eTbmzZ2PS5e+lKRak2iXsidKBx4MBjF37lw1gNVKjtyQDBBOpV5vbZLM7IvPERFfrSULSJREWSbMmDHDfDPRsGK8gTff/A2+vn4NcU2XptkT7evrQ2NjowqHE6ubz4J+mYcadXV1yjUy0SlIlOUGVziZ4Hxs8+fPV4dvSamtbIky62EG9CJA99c0vQlPnjwRx1/AmCh21jSTue3WXJRoY+M0hMSY05JKFjSmysrKSSVK302QaJ3kEzTmVCE/GolE1Gnxi9BRbj3PWGPxmPgCSf3M30YE626/3z/pRLmDjEb1YvXMY1OpAhLlB1YGNdlg7Kd4HJJIE7ZEuSpGiRex9WxKUMKBGJWOTqZEOZc1H+dmuUPYEmWFOd7sfTygMWXPCgqkeYS1DZOJ3Hy8SmMFa0+UO+CURMEhZCUFyzYWW7xynaVvsu9SMrvgYHkjfwYScj8KiWZ4qKWOrOUjJV2r0uRpyMQ3k759cdfS+ir+/vEhISkrooLnjIrRw+5ArDRg7f/p8VP44IM/2xN95933VebCQ9d4XFf3lKiCdZ1IyBStCxfhd2t+b09U05MSnWIIBIIIPA0hEo4r6UrGKEQn3hso23Cl4WE+bEdUl1qFkmQ1GAlLSSD3WV3lr3k/Kx1EoqyTeWJiSzSVNsThJqVkTUDKbiR0GpUYE3SxRN3sNXGgrRtgKS1BwI4of6LDTZr//uP13LlzWPjz19DUlK2jeOTI/xqvXLnSrPN/cCQMwdmAwTNSZkRZj8H/3tE3cmZlo+qTfP5afKi4Klv3xFDGiVgqM0qQSGdnpyJnHS0yX7xw4YLc8xzKkBI7IHodUuecfr/08ZRJn4jsTFTGcsh3bvMYMikL19Q7r9ejTgCZqT3bfOq91+vF/wDuAPmnA3KlQwAAAABJRU5ErkJggg==;" vertex="1" parent="1">
          <mxGeometry x="90" y="170" width="42" height="60" as="geometry" />
        </mxCell>
        <mxCell id="mec8if7hcqF6b17vrVBb-5" value="&lt;font style=&quot;font-size: 13px;&quot; face=&quot;Verdana&quot;&gt;User&lt;/font&gt;" style="text;html=1;strokeColor=none;fillColor=none;align=center;verticalAlign=middle;whiteSpace=wrap;rounded=0;fontSize=20;fontFamily=Architects Daughter;" vertex="1" parent="1">
          <mxGeometry x="81" y="220" width="60" height="30" as="geometry" />
        </mxCell>
        <mxCell id="mec8if7hcqF6b17vrVBb-6" value="&lt;font style=&quot;font-size: 13px;&quot; face=&quot;Verdana&quot;&gt;Enter Location,Date &amp;amp; Time&lt;/font&gt;" style="rounded=0;whiteSpace=wrap;html=1;hachureGap=4;fontFamily=Architects Daughter;fontSource=https%3A%2F%2Ffonts.googleapis.com%2Fcss%3Ffamily%3DArchitects%2BDaughter;fontSize=20;" vertex="1" parent="1">
          <mxGeometry x="160" y="90" width="140" height="60" as="geometry" />
        </mxCell>
      </root>
    </mxGraphModel>
  </diagram>
</mxfile>
